<svg id="Capa_1" enable-background="new 0 0 512 512" height="512" viewBox="0 0 512 512" width="512" fill = "rgb(255 131 119)" transform='rotate(180)'  xmlns="http://www.w3.org/2000/svg"><g><path d="m276 206h-40c-5.523 0-10 4.478-10 10v180c0 5.522 4.477 10 10 10h40c5.522 0 10-4.478 10-10v-180c0-5.522-4.478-10-10-10z"/><path d="m256 0c-141.578 0-256 114.388-256 256 0 141.58 114.389 256 256 256 141.58 0 256-114.389 256-256 0-141.58-114.389-256-256-256zm0 492c-130.131 0-236-105.869-236-236s105.869-236 236-236 236 105.869 236 236-105.869 236-236 236z"/><circle cx="256" cy="136" r="30"/></g></svg>